<?xml version="1.0" encoding="UTF-8" standalone="no"?>
<svg
   version="1.0"
   width="817.56195"
   height="1005.9703"
   viewBox="0 0 817.56195 1005.9703"
   id="svg2"
   xmlns:xlink="http://www.w3.org/1999/xlink"
   xmlns="http://www.w3.org/2000/svg"
   xmlns:svg="http://www.w3.org/2000/svg"
   xmlns:rdf="http://www.w3.org/1999/02/22-rdf-syntax-ns#"
   xmlns:cc="http://creativecommons.org/ns#"
   xmlns:dc="http://purl.org/dc/elements/1.1/">
  <metadata
     id="metadata4">
    <rdf:RDF>
      <cc:Work
         rdf:about="">
        <dc:format>image/svg+xml</dc:format>
        <dc:type
           rdf:resource="http://purl.org/dc/dcmitype/StillImage" />
      </cc:Work>
    </rdf:RDF>
  </metadata>
  <defs
     id="defs6">
    <path
       id="Outline"
       d="m 818.61167,47.119349 0.6494,1004.711651 c -35.10351,-0.7641 -285.87701,0.5825 -286.0943,0.5298 0,0 -498.734315,-194.09473 -522.075415,-203.34326 -1.957,-0.77539 -8.0715,-2.26172 -9.345,-3.4292 l -0.056,-1.00977 0.3935,-0.68213 0.9615,-0.3042 0.1987,-0.44189 -0.9158,-2.29297 c 1.377,-2.2041 0.4668,-3.83789 2.3455,-5.06445 0.313,-0.67773 0.3291,-1.98584 -0.068,-2.64014 -0.4143,0.52002 -1.0579,1.10449 -1.6697,1.38477 l -0.532,-0.21484 -0.2585,-0.49219 c -0.041,-0.37305 1.4587,-2.13477 1.7497,-3.81982 0.3382,-1.95752 -1.6526,-3.7959 -0.6584,-6.06348 l 0.6616,-0.6748 c 0.6081,0.12744 1.428,0.14014 2.0298,-0.0376 0.7764,-1.51611 1.8537,-2.12695 3.0061,-3.22314 0.7785,-0.74023 0.9319,-1.89697 1.5417,-2.68604 0.5076,-0.65674 1.441,-1.15332 1.9097,-1.82471 0.5034,-0.72119 2.4512,-7.49072 3.1348,-9.03662 0.2544,-1.05273 1.2229,-2.73877 2.2256,-3.26758 2.5888,-0.0479 5.3923,0.9585 7.9292,1.38037 2.6096,0.43408 11.1809,1.82812 13.6499,1.36719 6.3796,-4.8125 1.3645,-7.88281 3.1411,-13.33789 1.4992,-1.64697 2.8799,-3.44531 4.2173,-5.22314 2.7207,-0.27393 4.4685,-0.65381 5.6445,-3.23779 0.1785,-1.08838 -0.4233,-2.03857 -0.5676,-3.06885 -0.2723,-1.93994 0.2944,-3.87109 -1.0598,-5.57568 l 0.811,-1.1875 c 0.043,-2.30371 -2.6533,-3.89551 -2.1335,-6.58203 1.104,-1.29346 1.4785,-2.81641 1.9821,-4.39404 -0.861,-1.91211 -2.5251,-4.46191 -4.4909,-5.40186 -0.042,-1.97559 -1.9139,-5.17676 -3.0515,-6.6665 -2.4615,-0.40771 -4.9595,-1.17285 -7.4275,-1.4458 -1.512,1.3252 -4.1009,2.21729 -6.0901,1.85791 -1.1509,-0.69238 -3.1919,-2.79346 -3.7759,-3.99756 l -0.7776,0.17529 c -0.521,0.82324 -1.0215,1.80615 -1.2954,2.74561 -3.3035,-1.83057 -1.635,-3.2041 -2.8579,-5.5874 -0.2359,-0.45996 -0.7959,-0.85742 -1.0674,-1.30811 -1.1121,-1.84473 -0.7664,-2.73438 -3.2678,-3.41797 l 0.1699,-0.75586 c 0.3118,-1.51953 0.5198,-3.26709 0.9731,-4.73975 0.7847,-2.54883 2.754,-4.48828 3.0872,-7.35498 0.068,-0.58643 -0.088,-1.23877 -0.037,-1.83008 0.2185,-2.53125 0.9812,-5.55371 0.6014,-8.10449 -0.1841,-1.23682 -0.919,-2.31543 -0.8975,-3.63867 0.939,-1.46387 1.8877,-1.96387 2.2566,-3.93213 -0.27,-0.47852 -1.8911,-3.45264 -1.9592,-3.72705 -0.7478,-3.00879 0.2517,-5.53223 -2.7952,-7.8208 -0.229,-1.58447 0.1216,-3.29639 -0.1343,-4.83008 -0.5801,-3.47705 -3.792,-7.16064 0.1362,-10.20508 2.3767,0.3418 5.2608,-0.01 7.5769,-0.5415 l 0.9849,-1.4541 c 1.0659,-1.57471 1.3457,-4.00977 2.2117,-5.79541 1.4489,-2.98877 3.7314,-5.40039 4.9406,-8.55811 1.097,-0.65527 2.1844,-1.46777 3.1336,-2.32227 -0.5286,-2.48438 1.6828,-3.65918 3.511,-4.79834 0.4726,-0.896 0.8335,-2.52197 0.6057,-3.53369 -0.4615,-0.78271 -0.9959,-1.54297 -1.5745,-2.24316 -0.2263,-1.77588 1.5352,-5.22559 2.3206,-6.82324 l -0.6121,-2.00391 0.8477,-2.05176 c -0.1736,-0.38379 -0.4607,-1.42236 -0.2293,-1.83789 0.5376,-0.45654 1.0874,-1.21533 1.3279,-1.88135 -0.094,-0.77686 -0.8896,-1.82861 -1.5278,-2.24072 0.3491,-0.67578 0.5713,-1.51807 0.7094,-2.26025 0.927,-0.95215 2.2688,-1.72314 3.389,-2.41406 l 0.5578,-2.06201 c -0.1279,-0.47559 -1.3408,-4.66846 -1.344,-4.77637 -0.029,-0.95801 0.5064,-2.06689 0.493,-3.03027 -0.024,-1.73535 -2.2911,-8.07666 -2.8655,-10.11621 -0.6841,-2.42871 0.351,-5.29248 -0.9041,-7.75732 l 2.8677,-1.21436 0.5723,-1.0459 c 0.122,-1.8208 -0.1287,-3.81152 -1.9348,-4.69629 l -0.1729,-0.61621 0.7925,-0.37695 0.035,-1.01465 c -0.6658,-1.24023 -3.2129,-3.83887 -3.1932,-4.99707 1.5555,-4.03809 2.7798,-2.72705 4.7364,-4.39746 1.6789,-1.43408 3.1384,-3.5957 4.6701,-5.26172 -0.049,-1.15527 -0.078,-2.50391 -0.4108,-3.62354 0.8964,-0.75684 2.2575,-0.43896 3.5813,-1.89697 1.6069,-6.38477 -0.078,-11.39893 5.4077,-16.2085 3.4331,-0.38623 3.104,0.37842 6.835205,-1.15918 0.3808,-0.8584 0.7781,-1.71436 1.2163,-2.54541 0.5757,-0.60059 2.8484,-0.53662 3.6518,-0.92383 l 1.9371,-1.2793 c 1.2836,-0.84814 2.6706,-3.25977 3.8166,-3.62695 1.74169,-0.55811 4.0261,-0.63477 5.63379,-1.55469 3.83791,-2.1958 2.4722,-3.9834 4.1296,-5.78125 1.35972,-1.47461 3.70781,-2.7627 4.85211,-4.07275 0.237,-0.27148 1.8633,-4.08057 2.29,-4.8877 0.6609,-0.44629 2.5972,-0.83984 3.36751,-0.97998 0.12099,-0.21973 0.57049,-0.94727 0.63129,-1.14355 0.1582,-0.50977 -0.3835,-7.54102 -0.5764,-8.00391 -0.5825,-1.39795 -2.7569,-4.17969 -3.6419,-6.04541 -2.0476,-1.43164 -4.7431,-2.56104 -7.13451,-3.2373 -0.4836,-0.91016 -5.47,-6.05908 -6.5735,-6.56543 -0.7131,-0.0571 -1.446,-0.0415 -2.1582,0.0161 -1.2131,-1.15918 -0.8716,-2.97314 -1.8222,-3.8335 -1.5599,-1.41162 -3.8785,-2.71338 -5.6336,-4.2876 -1.991,-0.53174 -4.9612,1.229 -6.348595,-0.90674 -0.066,-1.44678 0.938195,-2.64014 1.025095,-3.92432 0.04,-0.59277 -0.5678,-7.00537 -0.706995,-7.65186 -0.456,-2.11475 -1.6099,-4.73486 -2.51,-6.75537 -1.5007,-3.36816 -4.3635,-4.24463 -4.9858,-6.28955 0.6096,-0.71045 0.9018,-1.12988 1.1557,-2.09033 -0.4397,-1.12305 -1.4136,-2.38477 -2.3474,-3.13916 -0.4292,-2.12305 -0.7798,-5.22217 -2.6277,-6.6167 l 0.3655,-0.55957 1.1504,-0.58105 -0.7698,-0.70947 c -0.01,-0.9126 -1.1208,-2.94385 -1.5701,-3.69824 0.4695,-0.79199 -0.3764,-4.33252 -1.8696,-4.39502 l -0.479,0.35449 -0.6619,-0.30078 -0.2475,-1.26562 c -0.4065,-0.36816 -1.7078,-1.19775 -1.8902,-1.67285 -1.4118,-0.0435 -6.3667,-4.67139 -7.1865,-5.90381 -0.9238,-1.38867 -2.0222,-3.49072 -2.6894,-5.02295 -0.9837,-2.26025 -1.1258,-4.91113 -2.4869,-7.25195 -0.2993,-0.51465 -3.5048,-3.89746 -3.8508,-4.19434 -1.3774,-1.18213 -1.9997,-0.60889 -2.6372,-2.53516 -0.813,-2.45605 0.3506,-3.17969 0.667,-5.31543 0.1411,-0.95215 -0.5076,-2.12891 -0.6086,-3.06152 -0.1221,-1.12451 0.4143,-2.4917 0.2692,-3.65234 -0.1167,-0.93311 -0.6279,-1.88818 -0.7722,-2.82275 -0.081,-0.52344 -0.064,-3.91064 -0.066,-4.63477 0,-1.32959 0.2566,-2.7124 0.4141,-4.04541 -0.376,-1.49658 -0.7825,-2.98828 -1.2251,-4.46631 0.634,-3.19336 2.479,-4.13672 5.186,-5.82959 l 0.4099,-1.93164 -0.9709,-1.80322 c -1.5799,-0.70557 -3.1302,-1.6748 -4.5601,-2.63965 -0.1611,-0.83398 0.3674,-2.29248 0.7893,-2.979 l 1.9216,-0.81641 c 1.7693,0.5918 4.9202,-0.0371 6.0813,-1.55078 1.7852,-4.79834 1.2457,-9.78662 0.3311,-14.6709 -0.7752,-4.14014 -1.686,-8.30957 -2.3347,-12.46826 -0.5762,-3.69434 -0.2534,-7.71436 -0.9937,-11.35693 -0.6789,-3.33984 -4.0818,-8.13428 -5.3169,-11.33447 -0.6867,-1.7793 -0.7783,-3.98291 -1.5366,-5.71484 -0.3464,-0.7915 -2.0027,-2.32129 -2.3174,-3.08936 -0.8676,-2.11719 -1.6818,-6.99854 -1.5883,-9.43115 l 1.2456,-1.01807 c 1.0866,-2.54346 1.1906,-7.2002 -0.021,-9.73047 l -1.181,-0.92578 2.4634,-1.15234 0.7398,-1.38867 c 0.055,-1.68848 -0.014,-3.04004 -0.8889,-4.45459 -0.7105,-1.14844 -2.6087,-4.98682 -3.9849,-5.26904 -0.036,-1.95508 1.137,-5.66699 1.0674,-5.97705 -1.2486,-1.6416 -2.3621,-3.104 -2.6018,-5.2207 -0.3225,-2.8501 0.9773,-6.03174 0.6467,-8.99951 -0.1362,-1.22266 -1.0437,-2.69971 -0.2173,-3.89941 l -1.4436,-3.58789 c 0.6262,-1.36841 1.1797,-2.77637 1.7031,-4.18677 0.02,-0.63867 -1.122,-2.53052 -1.4631,-3.05762 0.834,-0.73657 1.5986,-1.56763 2.3401,-2.39502 1.0232,-0.043 2.9328,-1.2439 3.7121,-1.81714 -3.0188,-2.38794 -7.3413,-6.51196 -6.4209,-10.83643 -1.1296,-0.53076 -2.4245,-1.44189 -3.2255,-2.41064 0.7727,-3.24976 -1.2713,-4.86938 -1.8362,-7.6687 -0.2144,-1.06274 0.084,-2.55542 -0.052,-3.71655 1.1389,-0.80811 1.4375,-2.24097 2.7097,-2.91479 l 0.058,-1.7666 c -2.1355,-2.56714 -3.2263,-5.73804 -4.7686,-8.65332 l 0.772,-2.27271 c 3.167,-1.97607 7.8489,-2.48535 11.4514,-3.49951 l 2.7151,-2.91284 c 1.1807,-0.57251 3.9575,-0.94409 5.2444,-0.34668 0.8992,-0.54688 5.7944,-2.91382 6.3833,-2.95679 l 6.033,0.45264 3.0166,0.22656 0.2983,1.42676 -1.624,1.53271 0.6845,0.37842 c 1.2798,-0.45923 5.2659,-1.83936 6.3343,-1.53687 l 2.2082,1.67334 1.2198,0.0452 c 4.0883,-6.09229 10.250195,-1.87256 14.352995,1.83789 l 2.58711,2.3396 c 0.093,0.12646 1.44629,3.58276 1.596,3.95361 l -0.8076,2.97632 c 1.334,1.49414 3.935,3.49536 5.9514,3.94482 0.532,1.86523 3.2122,4.17163 4.865,4.96655 2.552,0.14185 7.30251,-1.2041 9.50271,-2.45435 l 2.2483,0.44385 1.9485,-0.80615 c 0.41039,-3.20679 0.91299,-6.5354 1.77119,-9.65967 l 1.623,-1.35034 c -0.5063,-0.90356 -0.74529,-2.94189 -0.1958,-3.90015 0.77251,-1.34692 4.3938,-4.99512 5.48471,-6.32324 1.50509,-1.83228 2.51929,-4.04175 3.33469,-6.25366 l 0.6575,-1.78345 1.0239,-142.655751 c 104.7927,0.0894 209.5832,0.31494 314.3777,0.31494 69.0215,0 138.04391,-1.4248 207.06541,-1.4248 32.1987,0 64.4199,0.31885 96.6177,0.47803 l 89.6938,0.44845 z" />
    <clipPath
       id="clip1">
      <use
         xlink:href="#Outline"
         id="use10"
         x="0"
         y="0"
         width="862"
         height="1055" />
    </clipPath>
  </defs>
  <g
     transform="translate(1935.8748,1466.8438)"
     id="g12">
    <path
       style="fill:#bb133e;fill-opacity:1"
       d="m -1337.875,-1490.8438 c -53.4952,0.3886 -106.9728,1.25 -160.4688,1.25 -104.7943,0 -209.5824,-0.2236 -314.375,-0.3124 l -1,142.6562 -0.6874,1.7812 c -0.8154,2.212 -1.8074,4.4179 -3.3126,6.25 -1.091,1.3283 -4.7273,4.9655 -5.5,6.3126 -0.5493,0.958 -0.2875,3.0027 0.2188,3.9062 l -1.625,1.3438 c -0.8582,3.1239 -1.3709,6.4495 -1.7812,9.6562 l -1.9376,0.8125 -2.25,-0.4375 c -2.2001,1.2503 -6.9479,2.5793 -9.5,2.4375 -1.6527,-0.7949 -4.3429,-3.1037 -4.875,-4.9687 -2.0163,-0.4495 -4.6347,-2.4431 -5.9687,-3.9376 l 0.8125,-2.9687 c -0.1497,-0.3708 -1.5006,-3.8423 -1.5938,-3.9687 l -2.5937,-2.3126 c -4.1028,-3.7102 -10.2556,-7.936 -14.3437,-1.8437 l -1.2188,-0.062 -2.2188,-1.6562 c -1.0684,-0.3028 -5.0327,1.072 -6.3124,1.5312 l -0.6876,-0.375 1.625,-1.5312 -0.3124,-1.4376 -3,-0.2187 -6.0313,-0.4687 c -0.5889,0.043 -5.507,2.4219 -6.4063,2.9687 -1.2869,-0.5974 -4.038,-0.2286 -5.2187,0.3437 l -2.7187,2.9063 c -3.6024,1.0141 -8.3018,1.5239 -11.4688,3.5 l -0.75,2.2813 c 1.5423,2.915 2.6145,6.0891 4.75,8.6562 l -0.062,1.75 c -1.2722,0.6738 -1.5486,2.1294 -2.6875,2.9375 0.1357,1.1611 -0.1831,2.6563 0.031,3.7187 0.565,2.7996 2.6165,4.4066 1.8438,7.6563 0.801,0.9688 2.0891,1.8755 3.2188,2.4063 -0.9203,4.3241 3.4187,8.4558 6.4374,10.8437 -0.7793,0.5732 -2.6955,1.7695 -3.7187,1.8125 -0.7415,0.8274 -1.5098,1.6698 -2.3437,2.4062 0.3411,0.5272 1.4887,2.4238 1.4687,3.0626 -0.5234,1.4103 -1.0926,2.819 -1.7187,4.1874 l 1.4687,3.5626 c -0.8264,1.1994 0.051,2.6835 0.1875,3.9062 0.3306,2.9677 -0.9475,6.1499 -0.625,9 0.2397,2.1167 1.3452,3.5771 2.5938,5.2188 0.07,0.3098 -1.0985,4.0136 -1.0626,5.9687 1.3762,0.2822 3.2583,4.1327 3.9688,5.2813 0.8753,1.4143 0.9614,2.7803 0.9062,4.4687 l -0.75,1.375 -2.4687,1.1563 1.1875,0.9374 c 1.2113,2.5305 1.118,7.1753 0.031,9.7188 l -1.25,1.0312 c -0.093,2.4329 0.7262,7.2891 1.5938,9.4063 0.3147,0.7681 1.9661,2.3023 2.3125,3.0937 0.7583,1.7319 0.8445,3.9395 1.5313,5.7188 1.2349,3.2002 4.6336,8.0039 5.3124,11.3438 0.7403,3.6423 0.424,7.6494 1,11.3437 0.6486,4.1587 1.5686,8.3286 2.3438,12.4687 0.9146,4.8845 1.4415,9.8891 -0.3438,14.6876 -1.161,1.514 -4.2933,2.123 -6.0624,1.5312 l -1.9376,0.8125 c -0.4218,0.6865 -0.9423,2.166 -0.7812,3 1.4299,0.9648 2.9826,1.9195 4.5625,2.625 l 0.9687,1.8125 -0.4062,1.9375 c -2.707,1.6929 -4.5535,2.6191 -5.1875,5.8125 0.4426,1.478 0.8428,2.9721 1.2187,4.4688 -0.1574,1.3329 -0.4062,2.7329 -0.4062,4.0624 10e-4,0.7244 -0.018,4.1016 0.062,4.625 0.1443,0.9347 0.6333,1.8794 0.75,2.8126 0.1451,1.1604 -0.3721,2.5316 -0.25,3.6562 0.101,0.9326 0.7349,2.1103 0.5937,3.0625 -0.3163,2.1357 -1.4692,2.8565 -0.6562,5.3125 0.6375,1.9263 1.2476,1.3493 2.625,2.5312 0.346,0.2971 3.5757,3.7042 3.875,4.2188 1.3611,2.3408 1.4851,4.9897 2.4688,7.25 0.6672,1.5322 1.7635,3.6113 2.6874,5 0.8199,1.2324 5.7757,5.8634 7.1876,5.9062 0.1823,0.4754 1.4997,1.3193 1.9062,1.6876 l 0.25,1.25 0.6562,0.3124 0.4688,-0.3437 c 1.4932,0.062 2.3445,3.583 1.875,4.375 0.4493,0.7544 1.5525,2.8062 1.5625,3.7187 l 0.7813,0.6876 -1.1563,0.5937 -0.375,0.5625 c 1.8479,1.3946 2.1958,4.4706 2.625,6.5938 0.9338,0.7542 1.9353,2.0331 2.375,3.1562 -0.2539,0.9604 -0.5466,1.3833 -1.1563,2.0938 0.6223,2.0447 3.4681,2.913 4.9688,6.2812 0.9001,2.0205 2.044,4.6353 2.5,6.75 0.1392,0.6465 0.7586,7.0635 0.7188,7.6562 -0.087,1.2844 -1.0973,2.4907 -1.0313,3.9376 1.3874,2.1357 4.3528,0.3744 6.3437,0.9062 1.7552,1.5742 4.0964,2.8697 5.6563,4.2812 0.9506,0.8606 0.5994,2.6846 1.8125,3.8438 0.7122,-0.058 1.4433,-0.088 2.1562,-0.031 1.1036,0.5063 6.0789,5.6522 6.5626,6.5624 2.3913,0.6762 5.1086,1.8184 7.1562,3.25 0.885,1.8657 3.0425,4.6333 3.625,6.0313 0.1929,0.4629 0.7519,7.4902 0.5938,8 -0.061,0.1963 -0.5354,0.9365 -0.6563,1.1563 -0.7704,0.1399 -2.6829,0.5224 -3.3437,0.9687 -0.4268,0.8072 -2.0754,4.63485 -2.3126,4.90625 -1.1442,1.3101 -3.4839,2.5879 -4.8437,4.0625 -1.6574,1.7978 -0.2871,3.58545 -4.125,5.78125 -1.3885,0.79455 -3.2644,0.98355 -4.875,1.375 l 741.5625,0 -0.3438,-502.6563 -89.6874,-0.4687 c -16.099,-0.08 -32.2057,-0.1839 -48.3126,-0.2813 l -94.9062,0 z"
       transform="translate(-14,24)"
       id="path4" />
    <path
       style="fill:#fed700;fill-opacity:1"
       d="m -1337.875,-1490.8438 c -23.5043,0.1707 -46.9958,0.4158 -70.5,0.6563 l -60.3125,502.75 189.625,-503.4063 -58.8125,0 z m -130.8125,503.4063 363.8437,-322.9375 -0.125,-179.7188 -16.8437,-0.094 -346.875,502.75 z m 0,0 364,-89.7813 -0.062,-101.0624 -363.9375,190.8437 z m 0,0 -428.9063,-224.9375 c 0.36,1.4095 0.5587,2.9445 1.0626,4.25 1.235,3.2002 4.6335,8.004 5.3124,11.3438 0.7402,3.6424 0.4239,7.6494 1,11.3437 0.6486,4.1587 1.5686,8.3285 2.3438,12.4687 0.9146,4.8844 1.4414,9.8892 -0.3438,14.6876 -1.1611,1.5141 -4.2932,2.123 -6.0624,1.5312 l -1.9376,0.8125 c -0.4219,0.6865 -0.9423,2.166 -0.7812,3 1.4299,0.9648 2.9826,1.9195 4.5625,2.625 l 0.9687,1.8125 -0.4062,1.9375 c -2.707,1.6929 -4.5535,2.6191 -5.1875,5.8125 0.4426,1.478 0.8427,2.9722 1.2187,4.4688 -0.1575,1.333 -0.4062,2.7328 -0.4062,4.0624 10e-4,0.7243 -0.018,4.1015 0.062,4.625 0.1443,0.9346 0.6333,1.8795 0.75,2.8126 0.1451,1.1605 -0.3721,2.5316 -0.25,3.6562 0.101,0.9326 0.7348,2.1103 0.5937,3.0625 -0.3164,2.1357 -1.4692,2.8565 -0.6562,5.3125 0.6375,1.9263 1.2476,1.3492 2.625,2.5312 0.346,0.297 3.5757,3.7042 3.875,4.2188 1.3611,2.3408 1.4851,4.9897 2.4688,7.25 0.6673,1.5322 1.7635,3.6113 2.6874,5 0.645,0.9696 3.8187,3.9938 5.8438,5.2812 l 409.5625,101.0313 z m 0,0 -344.0625,-498.6563 -0.9688,138.8438 -0.6874,1.7812 c -0.8153,2.212 -1.8075,4.4178 -3.3126,6.25 -1.0911,1.3282 -4.7274,4.9656 -5.5,6.3126 -0.5494,0.9581 -0.2875,3.0027 0.2188,3.9062 l -1.625,1.3438 c -0.8582,3.124 -1.3709,6.4495 -1.7812,9.6562 l -1.9376,0.8125 -2.25,-0.4375 c -1.9183,1.0901 -5.7898,2.2546 -8.4374,2.4375 l 370.3437,327.75 z m 0,0 -61.9375,-502.1563 c -42.9694,-0.017 -85.9379,-0.07 -128.9062,-0.125 l 190.8437,502.2813 z m -394.7187,-350.8125 c -0.5054,-0.012 -1.0092,0.033 -1.5,0.1562 l 14.3124,12.6876 0.4688,-1.6563 c -0.1497,-0.3708 -1.5007,-3.8422 -1.5938,-3.9687 l -2.5937,-2.3126 c -2.5643,-2.3189 -5.9325,-4.8295 -9.0937,-4.9062 z"
       id="path6"
       transform="translate(-14,24)" />
    <path
       style="fill:#002664;fill-opacity:1"
       d="m -1846.1875,-987.4375 c -0.2543,0.0618 -0.5125,0.1114 -0.75,0.1875 -1.146,0.3672 -2.5289,2.7768 -3.8125,3.625 l -1.9375,1.28125 c -0.8034,0.3872 -3.0807,0.30565 -3.6563,0.90625 -0.4383,0.8311 -0.8379,1.7041 -1.2187,2.5625 -3.7312,1.5376 -3.4106,0.77005 -6.8437,1.15625 -5.4852,4.8096 -3.7994,9.83395 -5.4063,16.21875 -1.3238,1.458 -2.6972,1.1181 -3.5937,1.875 0.3328,1.1196 0.3885,2.4697 0.4374,3.625 -1.5317,1.666 -3.0085,3.84715 -4.6874,5.28125 -1.9566,1.6704 -3.1633,0.3369 -4.7188,4.375 -0.02,1.1582 2.5217,3.7597 3.1875,5 l -0.031,1.03125 -0.8124,0.375 0.1874,0.59375 c 1.8061,0.8847 2.0596,2.89795 1.9376,4.71875 l -0.5938,1.03125 -2.8438,1.21875 c 1.2551,2.4649 0.2222,5.3213 0.9063,7.75 0.5744,2.0396 2.8198,8.3897 2.8437,10.125 0.013,0.9634 -0.4977,2.07325 -0.4687,3.03125 0,0.1079 1.2159,4.30565 1.3437,4.78125 l -0.5624,2.0625 c -1.1202,0.6909 -2.4793,1.45405 -3.4063,2.40625 -0.1381,0.7421 -0.3384,1.5742 -0.6875,2.25 0.6382,0.4121 1.406,1.4732 1.5,2.25 -0.2405,0.666 -0.7749,1.4184 -1.3125,1.875 -0.2314,0.4155 0.045,1.45995 0.2187,1.84375 l -0.8437,2.0625 0.625,2 c -0.7854,1.5977 -2.57,5.0366 -2.3437,6.8125 0.5787,0.7002 1.1322,1.4673 1.5937,2.25 0.2278,1.0118 -0.1524,2.63525 -0.625,3.53125 -1.8282,1.1392 -4.0286,2.3281 -3.5,4.8125 -0.9492,0.8545 -2.028,1.6573 -3.125,2.3125 -1.2092,3.1578 -3.4886,5.5738 -4.9375,8.5625 -0.866,1.7857 -1.1528,4.20645 -2.2188,5.78125 l -1,1.46875 c -2.3161,0.5315 -5.1857,0.87305 -7.5624,0.53125 -3.9282,3.0444 -0.7051,6.74175 -0.125,10.21875 0.256,1.5337 -0.104,3.228 0.125,4.8125 3.0469,2.2886 2.0334,4.83495 2.7812,7.84375 0.068,0.2744 1.6988,3.24015 1.9688,3.71875 -0.3688,1.9682 -1.311,2.4736 -2.25,3.9375 -0.021,1.3232 0.7221,2.3881 0.9062,3.625 0.3798,2.5507 -0.4065,5.56245 -0.625,8.09375 -0.052,0.5913 0.1305,1.25735 0.062,1.84375 -0.3332,2.8667 -2.309,4.79495 -3.0937,7.34375 -0.4533,1.4727 -0.657,3.2304 -0.9688,4.75 l -0.1875,0.75 c 2.5014,0.6836 2.1692,1.5928 3.2813,3.4375 0.2715,0.4507 0.8264,0.82125 1.0624,1.28125 1.2229,2.3833 -0.4597,3.76315 2.8438,5.59375 0.2739,-0.9395 0.7915,-1.9268 1.3125,-2.75 l 0.7813,-0.15625 c 0.5841,1.2041 2.6303,3.3076 3.7812,4 1.9892,0.3593 4.5505,-0.5498 6.0625,-1.875 2.468,0.2729 4.976,1.0297 7.4375,1.4375 1.1376,1.4897 3.0205,4.7119 3.0625,6.6875 1.9658,0.9399 3.6077,3.49415 4.4687,5.40625 -0.5037,1.5776 -0.8647,3.0815 -1.9687,4.375 -0.5198,2.6865 2.168,4.29005 2.125,6.59375 l -0.8125,1.1875 c 1.3542,1.7046 0.7902,3.6225 1.0625,5.5625 0.1443,1.0302 0.741,2.00535 0.5625,3.09375 -1.176,2.584 -2.9043,2.94485 -5.625,3.21875 -1.3374,1.7778 -2.7196,3.57185 -4.2188,5.21875 -1.7766,5.4551 3.2234,8.53125 -3.1562,13.34375 -2.469,0.461 -11.0154,-0.9409 -13.625,-1.375 -2.5369,-0.4218 -5.3487,-1.423 -7.9375,-1.375 -1.0027,0.5288 -1.9643,2.22845 -2.2187,3.28125 -0.6835,1.5459 -2.6529,8.31005 -3.1563,9.03125 -0.4687,0.6714 -1.3988,1.1557 -1.9063,1.8125 -0.6099,0.7891 -0.7527,1.9473 -1.5312,2.6875 -1.1524,1.0962 -2.2236,1.70265 -3,3.21875 -0.6018,0.1781 -1.4232,0.1899 -2.0312,0.0625 l -0.6876,0.65625 c -0.9943,2.2675 1.0258,4.105 0.6876,6.0625 -0.2909,1.6851 -1.791,3.4394 -1.75,3.8125 l 0.25,0.5 0.5312,0.21875 c 0.6118,-0.2803 1.242,-0.855 1.6562,-1.375 0.3968,0.6543 0.3757,1.9472 0.063,2.625 -1.8787,1.2265 -0.9668,2.8584 -2.3438,5.0625 l 0.9375,2.3125 -0.2187,0.4375 -0.9376,0.3125 -0.4062,0.65625 0.062,1.03125 c 1.2735,1.1675 7.3867,2.63085 9.3437,3.40625 23.3412,9.2485 522.0626,203.34375 522.0626,203.34375 0.2173,0.0527 250.9901,-1.29535 286.0937,-0.53125 l -0.3125,-502.03125 -741.5625,0 z"
       transform="translate(-14,24)"
       id="path8" />
    <path
       style="fill:#ce5c17;fill-opacity:1"
       d="m -1482.6817,-1215.1344 162.7661,503.40044 -427.8904,-310.43024 h 530.2485 l -427.8904,310.43024"
       id="path10" />
  </g>
</svg>
