<?xml version="1.0" encoding="UTF-8"?>
<svg width="1002.3" height="1114.5" version="1.1" xmlns="http://www.w3.org/2000/svg">
 <defs>
  <clipPath id="New_Mexico">
   <path d="m423.43 68.063 79.945 2.1364 24.541 0.56504 20.304 0.49435 14.389 0.30008 5.1731 0.14125 5.6145 0.12358 8.3335 0.19422 5.8087 0.14123 5.6145 0.12359h2.8073l10.964 0.14124h2.8072l24.453 0.28249h2.8073l25.636 0.30013 7.0623 0.05314 9.3398 0.07048h0.63567l0.98869 0.03547 1.4477 0.05314 4.3433-0.01768 28.461 0.37082 24.541 0.24712 5.3497 0.03547h3.0721l2.3659 0.03547 2.9838 0.03547 10.682 0.07048 0.54737 0.7062 0.54737 0.61793 5.3497-0.01712h3.7077l30.898 0.03547 2.613-0.01768 17.038 0.03547h2.6307l43.027-0.1942 6.5149-0.07048 2.8073-0.03547 2.4542-0.01713 2.8955-0.05314 5.7911-0.07048 8.8808-0.1237 2.4542-0.05314-1.077 0.01768 20.816-0.14124 2.9839-0.01768 15.413-0.01712 6.0558-0.01768 78.444-0.44138 12.059-0.07048 6.6033-0.03547 5.5263-0.01768 5.2614 0.33539 110.24-1.6243 23.005-1.024 27.984-0.7592 144.67-4.308 13.401-0.47675 0.424 12.712 1.1123 33.263 0.6002 17.832 0.5297 16.208 0.5829 17.479-6.3386 0.37082 0.7594 20.127 0.9002 24.047 0.212 8.1746 0.5829 23.429 0.3531 11.282 1.9773 61.742 0.017 0.26482 0.7241 22.917 2.5248 85.471 0.017 0.28256 1.3593 45.269 1.0947 33.828 0.212 6.5679 2.2952 74.331 0.3886 11.282 0.054 1.536 1.1299 38.454v2.7719l-0.037 6.409 0.2475 7.2036 0.441 4.1844 0.3531 29.662 0.053 5.0142 0.1412 14.46 0.2296 21.505 0.212 13.012 0.5474 35.947 0.5297 35.523 0.6002 40.59 0.2475 8.3864 2.5247 85.63 2.4894 85.33 0.4764 16.844-40.732 0.9886-3.0367 0.07-2.1541 0.053-6.4443 0.1766-2.8955 0.069-53.55 1.2359-40.202 1.024-3.0544 0.089-2.9838 0.053-1.0771 0.017h-0.1942l-1.6243 0.053-2.6131 0.053h-0.2645l-5.5792 0.07-14.336 0.212-42.356 0.6709-55.05 0.7061-2.5778 0.036-13.877 0.2121-2.7896 0.053-10.823 0.16-1.4302 0.017-1.3593 0.017-2.8075 0.053h-2.6131l-8.4746 0.1943-2.7014-0.017h-2.719l-2.7012 0.089h-2.8956l-11.194 0.1765-1.2535 0.017-2.0481 0.053-3.4958 0.053-4.8907 0.1057-5.6675 0.1057h-0.8122l-1.4124 0.017h-12.2l-2.9661 0.089-2.8956 0.017h-11.194l-2.8073 0.089-2.8779 0.017h-8.4041l-8.404 0.089-8.3159 0.053-2.8955 0.017-1.2535 0.089h-3.2487l-8.4748 0.017h-2.7896l-3.5311 0.1057-3.1604 0.017-3.5842-0.017h-7.3447l-3.849 0.017h-2.7896l-8.2099 0.036h-19.298l-20.428-0.017-9.1986 0.036-15.466 0.053h-9.8872l-14.054 0.036h-5.5968l-8.2982 0.017-2.878 0.017h-3.0014l-7.2212-0.07 0.0354 0.6181-0.42397 0.3885-0.8298 0.1765-0.68862 0.2829-0.40624 0.4239-0.52966 0.7239-0.0354 0.088-0.31767 0.8122-0.0886 0.7945 0.3531 0.5298 0.63559 0.1764 0.63564 0.018 0.72387-0.054 0.63559 0.1411 0.44109 0.2475 0.1411 0.2473-0.0531 0.724-0.31767 0.5651-0.40626 0.1588-0.44108 0.3708-0.3531 0.4412-0.1411 0.6356 0.22971 0.4417 0.35309 0.1411 0.44169-0.036 0.52964-0.3 0.4411-0.018 0.21198 0.424 0.0177 0.1764-0.24742 0.3709-0.24741 0.2999-0.40624 0.6356-0.28225 0.6182-0.0886 0.7062-0.1234 0.865-0.0532 0.4417-0.26452 0.2999-0.33539 0.2822-0.38853 0.2646-0.26454 0.3531 0.0886 0.4063 0.26454 0.1411 0.54735-0.1063 0.63561 0.054 0.44167 0.036 0.26454 0.1766 0.3354 0.3354 0.0176 0.4588-0.2474 0.2822-0.42397 0.2823-0.56507 0.2646-0.60029 0.088-0.67097 0.2644-0.54736 0.2646-0.86512 0.5828-0.75917 0.8651-0.24741 0.5297-0.26513 0.618 0.0886 0.4417 0.35311 0.4587 0.63559 0.4417 0.24741 0.2297 0.68863 0.8474 0.33538 0.7064 0.12341 0.6003-0.2297 0.7415-0.33537 0.6179-0.24743 0.5474-0.0532 0.124 0.29996 0.4234 0.54738 0.777 2.1893 2.4541 1.2359 1.1122 0.65325 0.017 0.52966-0.036 0.38855 0.2475 0.0354 0.6179-0.0708 0.4942-0.088 0.7944v0.8123l0.053 0.3178 0.3177 0.6001 0.54737 0.1412 0.44167-0.1051 0.45881 0.1942 0.28225 0.1051 0.33538 0.3354 0.42397 0.3353 0.68856 0.8476 0.52966 0.8651 1.0946 0.2823 0.51194-0.1064 0.54737-0.1411 0.42397-0.088 0.21197-0.017 0.12342-0.017h0.86509l0.63566 0.088 1.1299 0.7064 0.40625 0.3531 0.37082 0.3176 0.49423 0.8652 0.49422 0.7769 0.40625 0.3354 0.37083 0.3177 0.21198 0.2468 0.17655 0.3531v0.2645l-0.17655 0.3531-0.26453 0.4589-36.512-0.088-42.444-0.2473-22.899-0.1944-2.7896-0.088-14.319-0.124h-2.8072l-5.5793-0.069-9.3751-0.054-2.7896-0.088-14.072-0.1239h-2.7897l-5.8617-0.07-5.3144-0.07-2.7896-0.088-25.866-0.2646-8.3865-0.053h-2.9662l-22.635-0.5473-9.0044-0.141-2.8073-0.07-14.054-0.3177-2.7896 0.017-14.601-0.2999-2.7896-0.088-4.1491-0.07h-0.63559l-0.0706 3.3899-0.0882 2.9486 0.0177 3.0368-0.65328 31.356-0.0882 2.9486-0.1942 14.213-0.58264 30.297-19.545-0.3707-14.23-0.3-102.23-2.0657-5.332-0.1241 0.17656-7.4508 0.0532-2.1363 0.31779-10.805 0.0706-2.6839 0.22952-7.1505 0.14124-3.8665 0.28249-12.853 0.14123-4.4492 0.10605-3.0721 1.6949-58.917 0.17656-5.8085 0.10594-3.6019 0.0706-3.0367 0.35311-12.606 0.1942-6.921 0.98873-34.64 0.0883-2.8424 0.24718-8.8457 0.0883-2.8601 0.17655-6.2325 0.17655-5.6676 0.0706-2.9483 0.0355-0.84753 0.10594-3.7431 0.95341-34.005 0.49435-17.797 0.30014-11.105 0.19421-6.8327 0.42372-13.224 0.0883-3.6371 0.14125-4.926 0.0176-0.95346 0.0355-1.6419 0.12352-4.2374 0.0355-1.642 0.0883-2.4718 0.17655-5.7381 1.2712-45.428 0.15889-5.5615 1.2712-46.488 0.0706-2.613 0.65324-23.5 0.90046-32.628 0.24717-8.7396 1.2712-45.305 0.24718-8.8455 0.19422-8.2629 0.45903-14.319 0.19421-5.7911 0.12358-4.0961 0.14125-4.6434 0.10594-3.0191 0.0531-1.3242 0.0706-2.9485 0.10594-5.332 0.14124-6.0559 0.0532-1.8009 0.0355-1.1476 0.6003-20.463 0.1236-4.202 0.24717-7.5567 0.0532-2.048 0.0532-1.6067 0.0355-1.2359 0.0355-1.0594 0.0532-1.8892 1.2006-42.268 0.15891-5.5968 0.14123-4.979 0.4767-17.62 1.1476-40.131 0.0706-2.6661 0.0883-2.8426 0.0883-2.666 0.0706-2.9308 0.0883-2.5778 0.67091-22.952 1.695-60.842 2.0127-67.039 0.0706-2.1187 3.7783-130.03 0.54733-18.662z"/>
  </clipPath>
 </defs>
 <g transform="translate(-391.72 -66.141)" clip-path="url(#New_Mexico)">
  <path d="m0 0h1800v1200h-1800z" fill="#ffd700"/>
  <g stroke="#bf0a30" stroke-linecap="round" stroke-width="27">
   <path d="m956.5 353.4v493.21m-37.682-533.1v573m-37.636-573v573m-37.682-533.1v493.21"/>
   <path d="m653.4 543.5h493.21m-533.1 37.682h573m-573 37.636h573m-533.1 37.682h493.21"/>
  </g>
  <circle cx="900" cy="600" r="93.25" fill="#ffd700" stroke="#bf0a30" stroke-width="13.5"/>
 </g>
</svg>
